<svg width="150" height="131" viewBox="0 0 150 131" fill="none" xmlns="http://www.w3.org/2000/svg">
<path d="M96.2705 0C100.817 0 104.502 3.69844 104.502 8.26074V45.332C104.502 47.2593 103.842 49.0312 102.74 50.4365C103.527 50.8304 104.255 51.3497 104.888 51.9854L141.129 88.3545C143.664 90.8991 144.08 94.3271 142.988 97.166C146.956 97.7573 150 101.19 150 105.337V122.739C150 127.301 146.314 131 141.768 131H8.23145C3.68539 131 0.000139703 127.301 0 122.739V105.337C4.10673e-05 101.19 3.04413 97.7576 7.01172 97.166C5.91927 94.3272 6.33567 90.899 8.87109 88.3545L45.1113 51.9854L45.4072 51.7031C45.9677 51.1939 46.5926 50.7704 47.2598 50.4365C46.1576 49.0313 45.499 47.2591 45.499 45.332V8.26074C45.4992 3.69844 49.1843 0 53.7305 0H96.2705ZM8.23145 103.501C7.22132 103.501 6.40239 104.323 6.40234 105.337V122.739L6.41211 122.926C6.49942 123.791 7.18377 124.477 8.04492 124.565L8.23145 124.575H141.768L141.955 124.565C142.816 124.477 143.5 123.791 143.588 122.926L143.598 122.739V105.337C143.598 104.323 142.779 103.501 141.768 103.501H8.23145ZM123.648 111.229C124.391 111.229 125.104 111.525 125.629 112.052C126.154 112.579 126.448 113.293 126.448 114.038C126.448 114.783 126.154 115.497 125.629 116.024C125.104 116.551 124.391 116.848 123.648 116.848H26.002C25.2595 116.848 24.5474 116.551 24.0225 116.024C23.4975 115.497 23.2022 114.783 23.2021 114.038C23.2023 113.293 23.4975 112.579 24.0225 112.052C24.5474 111.525 25.2595 111.229 26.002 111.229H123.648ZM50.9316 55.9912C50.4466 55.9914 49.9815 56.1851 49.6387 56.5293L13.3984 92.8984C12.2465 94.055 13.063 96.032 14.6924 96.0322H135.308L135.458 96.0273C136.937 95.9141 137.67 94.1385 136.703 93.0088L136.601 92.8984L100.361 56.5293C100.061 56.228 99.6668 56.0417 99.248 56L99.0684 55.9912H50.9316ZM53.5439 6.43555C52.6214 6.52941 51.9015 7.31025 51.9014 8.26074V45.332C51.9014 46.3459 52.7202 47.168 53.7305 47.168H96.2705C97.2177 47.168 97.9963 46.4453 98.0898 45.5195L98.0996 45.332V8.26074C98.0995 7.31025 97.3795 6.52941 96.457 6.43555H53.5439Z" fill="#3D9037"/>
</svg>
