<svg width="150" height="150" viewBox="0 0 150 150" fill="none" xmlns="http://www.w3.org/2000/svg">
<path d="M146 0C148.209 0 150 1.79086 150 4V146C150 148.209 148.209 150 146 150H4C1.79086 150 0 148.209 0 146V4C0 1.79086 1.79086 0 4 0H146ZM12.7891 8.78906C10.5799 8.78906 8.78906 10.5799 8.78906 12.7891V137.211C8.78906 139.42 10.5799 141.211 12.7891 141.211H137.211C139.42 141.211 141.211 139.42 141.211 137.211V12.7891C141.211 10.5799 139.42 8.78906 137.211 8.78906H12.7891ZM128.129 79.3945C130.338 79.3945 132.129 81.1854 132.129 83.3945V128.422C132.129 130.631 130.338 132.422 128.129 132.422H21.8711C19.662 132.422 17.8711 130.631 17.8711 128.422V83.3945C17.8711 81.1854 19.662 79.3945 21.8711 79.3945H128.129ZM30.6602 88.1836C28.451 88.1836 26.6602 89.9745 26.6602 92.1836V119.633C26.6602 121.842 28.451 123.633 30.6602 123.633H31.4492C33.6584 123.633 35.4492 121.842 35.4492 119.633V92.1836C35.4492 89.9745 33.6584 88.1836 31.4492 88.1836H30.6602ZM48.2383 88.1836C46.0291 88.1836 44.2383 89.9745 44.2383 92.1836V119.633C44.2383 121.842 46.0291 123.633 48.2383 123.633H49.0273C51.2365 123.633 53.0273 121.842 53.0273 119.633V92.1836C53.0273 89.9745 51.2365 88.1836 49.0273 88.1836H48.2383ZM65.8164 88.1836C63.6073 88.1836 61.8164 89.9745 61.8164 92.1836V119.633C61.8164 121.842 63.6073 123.633 65.8164 123.633H66.6055C68.8146 123.633 70.6055 121.842 70.6055 119.633V92.1836C70.6055 89.9745 68.8146 88.1836 66.6055 88.1836H65.8164ZM83.3945 88.1836C81.1854 88.1836 79.3945 89.9745 79.3945 92.1836V119.633C79.3945 121.842 81.1854 123.633 83.3945 123.633H84.1836C86.3927 123.633 88.1836 121.842 88.1836 119.633V92.1836C88.1836 89.9745 86.3927 88.1836 84.1836 88.1836H83.3945ZM100.973 88.1836C98.7635 88.1836 96.9727 89.9745 96.9727 92.1836V119.633C96.9727 121.842 98.7635 123.633 100.973 123.633H101.762C103.971 123.633 105.762 121.842 105.762 119.633V92.1836C105.762 89.9745 103.971 88.1836 101.762 88.1836H100.973ZM118.551 88.1836C116.342 88.1836 114.551 89.9745 114.551 92.1836V119.633C114.551 121.842 116.342 123.633 118.551 123.633H119.34C121.549 123.633 123.34 121.842 123.34 119.633V92.1836C123.34 89.9745 121.549 88.1836 119.34 88.1836H118.551ZM128.129 17.5781C130.338 17.5781 132.129 19.369 132.129 21.5781V66.6055C132.129 68.8146 130.338 70.6055 128.129 70.6055H21.8711C19.662 70.6055 17.8711 68.8146 17.8711 66.6055V21.5781C17.8711 19.369 19.662 17.5781 21.8711 17.5781H128.129ZM30.6602 26.3672C28.451 26.3672 26.6602 28.158 26.6602 30.3672V57.8164C26.6602 60.0255 28.451 61.8164 30.6602 61.8164H31.4492C33.6584 61.8164 35.4492 60.0255 35.4492 57.8164V30.3672C35.4492 28.158 33.6584 26.3672 31.4492 26.3672H30.6602ZM48.2383 26.3672C46.0291 26.3672 44.2383 28.158 44.2383 30.3672V57.8164C44.2383 60.0255 46.0291 61.8164 48.2383 61.8164H49.0273C51.2365 61.8164 53.0273 60.0255 53.0273 57.8164V30.3672C53.0273 28.158 51.2365 26.3672 49.0273 26.3672H48.2383ZM65.8164 26.3672C63.6073 26.3672 61.8164 28.158 61.8164 30.3672V57.8164C61.8164 60.0255 63.6073 61.8164 65.8164 61.8164H66.6055C68.8146 61.8164 70.6055 60.0255 70.6055 57.8164V30.3672C70.6055 28.158 68.8146 26.3672 66.6055 26.3672H65.8164ZM83.3945 26.3672C81.1854 26.3672 79.3945 28.158 79.3945 30.3672V57.8164C79.3945 60.0255 81.1854 61.8164 83.3945 61.8164H84.1836C86.3927 61.8164 88.1836 60.0255 88.1836 57.8164V30.3672C88.1836 28.158 86.3927 26.3672 84.1836 26.3672H83.3945ZM100.973 26.3672C98.7635 26.3672 96.9727 28.158 96.9727 30.3672V57.8164C96.9727 60.0255 98.7635 61.8164 100.973 61.8164H101.762C103.971 61.8164 105.762 60.0255 105.762 57.8164V30.3672C105.762 28.158 103.971 26.3672 101.762 26.3672H100.973ZM118.551 26.3672C116.342 26.3672 114.551 28.158 114.551 30.3672V57.8164C114.551 60.0255 116.342 61.8164 118.551 61.8164H119.34C121.549 61.8164 123.34 60.0255 123.34 57.8164V30.3672C123.34 28.158 121.549 26.3672 119.34 26.3672H118.551Z" fill="#3D9037"/>
</svg>
