<svg width="150" height="150" viewBox="0 0 150 150" fill="none" xmlns="http://www.w3.org/2000/svg">
<path d="M143.598 16.6307C143.595 13.9188 142.517 11.3187 140.599 9.40107C138.681 7.48347 136.081 6.40481 133.37 6.40255H16.6304C13.9185 6.40481 11.3176 7.48342 9.40001 9.40107C7.4826 11.3187 6.4047 13.9189 6.40244 16.6307V133.369C6.40522 136.081 7.48356 138.681 9.4009 140.598C11.3184 142.516 13.9187 143.595 16.6304 143.597H133.368C136.08 143.595 138.68 142.517 140.598 140.6C142.516 138.683 143.594 136.083 143.598 133.371V16.6307ZM133.368 10.8347C134.905 10.8347 136.38 11.4457 137.467 12.5327C138.553 13.6196 139.164 15.0937 139.164 16.6307V133.371C139.164 134.908 138.553 136.382 137.467 137.469C136.38 138.556 134.905 139.166 133.368 139.166H16.6287C15.0915 139.166 13.6167 138.556 12.5298 137.469C11.443 136.382 10.8328 134.908 10.8327 133.371V16.6325C10.8327 15.0955 11.4431 13.6214 12.5298 12.5345C13.6167 11.4475 15.0915 10.8365 16.6287 10.8365L133.368 10.8347ZM26.9415 118.914C25.5446 118.337 24.0077 118.188 22.5255 118.484C21.0435 118.78 19.682 119.509 18.6142 120.578C17.5465 121.648 16.8204 123.011 16.5268 124.493C16.2333 125.976 16.3858 127.513 16.9654 128.909C17.545 130.304 18.526 131.497 19.7834 132.336C21.0407 133.174 22.5185 133.621 24.0297 133.619C26.0558 133.615 27.9977 132.808 29.4291 131.374C30.8604 129.94 31.6643 127.997 31.6647 125.971C31.6634 124.459 31.214 122.982 30.3732 121.726C29.5324 120.47 28.3383 119.492 26.9415 118.914ZM128.896 118.916C127.5 118.339 125.964 118.188 124.482 118.483C123.001 118.778 121.639 119.506 120.571 120.574C119.503 121.642 118.775 123.003 118.48 124.484C118.185 125.966 118.336 127.503 118.913 128.899C119.491 130.295 120.469 131.488 121.725 132.329C122.981 133.169 124.457 133.618 125.968 133.619C127.996 133.619 129.942 132.813 131.376 131.378C132.81 129.944 133.616 127.999 133.617 125.971C133.616 124.46 133.167 122.983 132.326 121.727C131.486 120.472 130.292 119.494 128.896 118.916ZM112.73 121.306C111.272 122.496 109.754 123.62 108.179 124.673C102.651 128.366 96.5758 131.088 90.2156 132.764H113.679C113.426 132.306 113.198 131.833 112.997 131.346C111.935 128.78 111.659 125.957 112.201 123.234L112.312 122.726C112.426 122.244 112.567 121.771 112.73 121.306ZM37.2704 121.318C37.7929 122.804 38.0658 124.374 38.0672 125.965V125.973C38.0666 128.369 37.4533 130.702 36.3147 132.764H59.7683C55.2913 131.584 50.9492 129.885 46.8348 127.686C43.437 125.869 40.2363 123.734 37.2704 121.318ZM24.0297 122.768C24.8782 122.771 25.6913 123.109 26.2913 123.709C26.8913 124.309 27.2296 125.122 27.2327 125.971C27.234 126.606 27.0471 127.227 26.695 127.756C26.3428 128.285 25.8411 128.698 25.2543 128.942C24.6675 129.185 24.0214 129.249 23.3982 129.126C22.7753 129.002 22.203 128.697 21.7538 128.248C21.3046 127.798 20.9986 127.225 20.8749 126.602C20.7513 125.979 20.8152 125.333 21.0589 124.746C21.3027 124.159 21.7153 123.658 22.2442 123.305C22.773 122.953 23.3944 122.766 24.0297 122.768ZM125.968 122.768C126.819 122.767 127.635 123.104 128.238 123.705C128.841 124.305 129.182 125.12 129.185 125.971C129.186 126.606 128.999 127.227 128.647 127.755C128.296 128.284 127.795 128.697 127.209 128.941C126.623 129.185 125.978 129.25 125.355 129.127C124.732 129.005 124.159 128.7 123.71 128.252C123.26 127.804 122.953 127.233 122.828 126.61C122.703 125.988 122.765 125.342 123.007 124.755C123.248 124.168 123.659 123.666 124.186 123.313C124.713 122.959 125.333 122.769 125.968 122.768ZM124.738 125.987C124.739 126.146 124.769 126.303 124.83 126.451C124.923 126.677 125.081 126.871 125.285 127.008C125.422 127.099 125.576 127.158 125.735 127.19L125.969 126.002V125.982L124.738 125.987ZM75.1179 21.5774C74.8704 21.5623 74.6195 21.5883 74.3765 21.6577C74.3538 21.6642 74.3305 21.6691 74.3069 21.6694C71.0621 21.7113 67.8167 22.0495 64.6112 22.6858C56.0067 24.3939 47.9557 28.1977 41.1728 33.7608C39.8868 34.8156 38.6543 35.9279 37.4777 37.0925C37.3346 37.2053 37.2047 37.3334 37.0936 37.4774C32.2448 42.3754 28.3773 48.179 25.725 54.578C22.3661 62.6818 21.058 71.4892 21.9164 80.2195C22.7748 88.9498 25.7736 97.3339 30.6465 104.628C35.5195 111.923 42.1164 117.903 49.8529 122.039C57.4996 126.126 66.0263 128.285 74.6936 128.334C74.7945 128.348 74.8964 128.357 74.9991 128.357C75.1065 128.358 75.2132 128.348 75.3189 128.333C85.7529 128.269 95.9421 125.149 104.622 119.349C107.402 117.492 109.986 115.385 112.349 113.066C112.411 113.005 112.48 112.952 112.548 112.898C112.638 112.827 112.722 112.749 112.799 112.665C112.937 112.516 113.063 112.354 113.205 112.208C117.898 107.388 121.662 101.699 124.263 95.422C126.809 89.2797 128.17 82.7484 128.314 76.1679C128.322 75.8108 128.401 75.4578 128.423 75.1014C128.424 75.0899 128.424 75.0781 128.425 75.0665C128.428 74.9872 128.427 74.9079 128.422 74.829C128.399 74.474 128.321 74.1217 128.313 73.766C128.243 70.7064 127.909 67.645 127.308 64.6159C125.324 54.6158 120.515 45.4024 113.464 38.0589C113.25 37.8367 113.078 37.5781 112.876 37.3453C112.814 37.2735 112.748 37.206 112.677 37.1434C112.434 36.9284 112.161 36.7462 111.927 36.5217C105.876 30.7136 98.5367 26.4101 90.5014 23.9685C85.8282 22.5485 81.0001 21.7835 76.1531 21.6783C75.8068 21.6708 75.4637 21.5984 75.1179 21.5774ZM24.0252 125.982L24.4968 127.119C24.6454 127.057 24.782 126.967 24.8979 126.851C24.9557 126.793 25.0067 126.729 25.0515 126.662L24.0306 125.982H24.0252ZM24.0225 125.982L24.0199 127.216H24.0208C24.186 127.215 24.3474 127.182 24.4968 127.119L24.0243 125.982H24.0225ZM23.7823 127.19C23.8579 127.205 23.9347 127.215 24.0127 127.216L24.0172 126.006L23.7823 127.19ZM125.969 127.215V126.004L125.735 127.19C125.812 127.205 125.89 127.215 125.969 127.215ZM125.975 125.982L125.977 127.216C126.141 127.214 126.302 127.181 126.45 127.119L125.977 125.982H125.975ZM24.0172 125.984L23.149 126.851C23.2065 126.909 23.2674 126.963 23.3357 127.009L23.4938 127.099C23.5851 127.142 23.6822 127.17 23.7814 127.19L24.0172 126.004V125.984ZM125.977 125.982L126.45 127.119C126.524 127.087 126.595 127.049 126.663 127.003L125.977 125.982H125.977ZM127.214 125.978L125.978 125.982L126.663 127.002C126.729 126.958 126.791 126.908 126.848 126.851C127.081 126.618 127.211 126.304 127.214 125.978ZM22.7864 125.987C22.7875 126.147 22.8168 126.305 22.8784 126.453L22.9605 126.616C23.0125 126.702 23.0768 126.78 23.1481 126.851L24.0172 125.982L22.7864 125.987ZM24.0315 125.982L25.0524 126.662C25.0968 126.596 25.1342 126.525 25.1649 126.451L24.035 125.982H24.0315ZM24.035 125.982L25.1649 126.451C25.2272 126.303 25.2602 126.142 25.2614 125.978L24.035 125.982ZM22.9927 125.292C22.9037 125.426 22.8396 125.576 22.8078 125.737C22.7919 125.817 22.7863 125.899 22.7864 125.98L24.0172 125.977V125.973L22.9927 125.292ZM124.807 125.56L124.759 125.735C124.743 125.816 124.738 125.898 124.738 125.98L125.969 125.977V125.974L124.831 125.506C124.823 125.524 124.814 125.542 124.807 125.56ZM24.0234 125.977L25.2614 125.974C25.2608 125.73 25.1889 125.491 25.0533 125.288C25.008 125.221 24.9537 125.16 24.897 125.103L24.0234 125.977ZM24.0225 125.977L24.897 125.103C24.7821 124.988 24.6475 124.894 24.4968 124.832C24.4216 124.801 24.3431 124.78 24.2637 124.764L24.0225 125.977ZM127.006 125.287C126.87 125.086 126.677 124.926 126.449 124.832C126.373 124.8 126.293 124.78 126.213 124.764L125.975 125.976V125.977L127.214 125.974C127.213 125.729 127.141 125.49 127.006 125.287ZM24.0225 125.976L24.2628 124.764C24.1845 124.749 24.1053 124.741 24.0252 124.741L24.0225 125.976ZM125.285 124.951C125.219 124.995 125.156 125.045 125.099 125.102C124.982 125.218 124.893 125.356 124.831 125.506L125.969 125.974V125.97L125.285 124.951ZM125.975 125.974L126.212 124.764C126.133 124.748 126.052 124.741 125.971 124.741L125.975 125.974ZM23.283 124.983L23.1454 125.102C23.0879 125.159 23.0384 125.224 22.9936 125.291L24.0172 125.973V125.969L23.3375 124.948C23.3195 124.96 23.3003 124.97 23.283 124.983ZM125.499 124.836C125.424 124.868 125.352 124.905 125.285 124.95L125.969 125.969L125.969 125.965L125.499 124.836ZM23.5483 124.836C23.4743 124.866 23.4038 124.903 23.3375 124.947L24.0172 125.968V125.965L23.5483 124.836ZM125.733 124.762C125.652 124.778 125.575 124.804 125.5 124.836L125.969 125.964V124.741C125.95 124.741 125.932 124.739 125.914 124.74L125.733 124.762ZM23.7805 124.762C23.7004 124.778 23.6236 124.805 23.5492 124.836L24.0172 125.963L24.0217 124.741C23.9412 124.741 23.8604 124.746 23.7805 124.762ZM78.9426 86.622C78.9596 86.6163 78.9777 86.6226 78.9881 86.6372C85.22 95.7358 93.1756 103.256 102.707 109.076C104.893 110.411 105.252 113.505 103.157 114.981C96.1376 119.925 87.9152 122.95 79.3159 123.712C77.6993 123.855 76.2258 122.82 75.7699 121.263C72.5673 110.32 71.8681 99.2653 73.6879 88.3245C73.7921 87.6988 74.3647 87.2741 74.9991 87.2741C76.3533 87.2741 77.684 87.0492 78.9426 86.622ZM62.8293 84.8061C64.3395 83.6527 66.4518 84.0112 68.0143 85.0929C68.0694 85.131 68.1246 85.169 68.1804 85.2063C68.6261 85.5041 69.0905 85.7685 69.5676 86.0039C69.5791 86.0097 69.5858 86.0225 69.5837 86.0352C67.5536 96.8812 67.862 107.833 70.4902 118.693C71.0926 121.183 69.1583 123.624 66.6343 123.188C57.9734 121.689 50.0859 117.903 43.6175 112.478C42.3748 111.436 42.0651 109.664 42.8431 108.24C47.9397 98.918 54.6409 91.0618 62.8293 84.8061ZM132.761 90.2065C132.077 92.8075 131.216 95.3697 130.178 97.8739C127.945 103.262 124.946 108.262 121.302 112.734C121.929 112.513 122.574 112.335 123.232 112.204L123.744 112.112C126.307 111.699 128.938 112.004 131.344 113V113C131.83 113.202 132.303 113.429 132.761 113.682V90.2065ZM79.1659 97.3817C78.8827 103.915 79.5756 110.48 81.2506 117.036C86.3213 116.282 91.1994 114.617 95.6543 112.139C89.4805 107.928 83.9673 102.997 79.1659 97.3817ZM17.2351 113.685C18.4905 112.992 19.8501 112.489 21.2706 112.205L21.7824 112.113C24.0978 111.739 26.4695 111.952 28.6815 112.73C27.4939 111.272 26.3725 109.756 25.323 108.185C21.6404 102.672 18.9148 96.6034 17.2351 90.2351V113.685ZM62.1112 93.7552C57.2991 98.1769 53.1504 103.308 49.7029 109.128C53.7599 112.145 58.3645 114.452 63.3348 115.873C61.9446 108.522 61.5339 101.128 62.1112 93.7552ZM118.683 79.504C121.173 78.9013 123.615 80.8361 123.177 83.3609C121.71 91.8191 118.035 99.7703 112.495 106.389C111.453 107.634 109.678 107.944 108.255 107.164C98.2532 101.688 89.9438 94.3609 83.4961 85.3412C83.1294 84.8282 83.2315 84.1256 83.6774 83.6798C84.6315 82.7257 85.4116 81.6299 85.9988 80.4428C86.0137 80.4128 86.0462 80.3971 86.0792 80.4026C90.7573 81.2814 95.5068 81.7249 100.267 81.7272C106.409 81.7272 112.558 80.9861 118.683 79.504ZM28.7324 75.7597C39.1144 72.7154 49.597 71.9239 59.988 73.3998C61.5719 73.6248 62.6229 75.0868 62.8409 76.6717C63.029 78.0396 62.5858 79.4766 61.4707 80.291C53.2165 86.3187 46.3383 93.8239 40.9326 102.687C39.5985 104.875 36.5039 105.235 35.0258 103.142C30.1817 96.2814 27.0566 88.1241 26.2841 79.3031C26.1427 77.6878 27.1765 76.2159 28.7324 75.7597ZM115.864 86.656C110.682 87.6352 105.476 88.1298 100.267 88.1298H100.264C98.0975 88.1287 95.9326 88.0419 93.775 87.8725C98.1932 92.6922 103.324 96.8462 109.142 100.299C112.193 96.181 114.466 91.5567 115.864 86.656ZM52.612 79.1423C46.0804 78.8632 39.5143 79.5589 32.9563 81.2387C33.7178 86.3966 35.4104 91.2555 37.86 95.6426C42.0671 89.4676 46.9962 83.9506 52.612 79.1423ZM74.9991 67.1589C75.7568 67.1589 76.503 67.2699 77.2169 67.4805C77.2513 67.4916 77.2857 67.5024 77.3205 67.5117C78.5259 67.8854 79.6353 68.5475 80.5441 69.4563C81.0337 69.946 81.4501 70.4949 81.7901 71.0846C81.8472 71.2207 81.9166 71.3508 81.9991 71.4723C82.5458 72.5569 82.8404 73.763 82.8405 75.0004C82.8405 76.5514 82.3811 78.068 81.5194 79.3575C80.8354 80.3814 79.9211 81.2239 78.8568 81.8255C78.7625 81.8685 78.6704 81.9168 78.5826 81.9729C78.5789 81.9753 78.5747 81.9776 78.571 81.98C78.3846 82.0754 78.1947 82.1648 78.0003 82.2453C76.5674 82.8388 74.9901 82.9945 73.4691 82.6919C71.9481 82.3893 70.5507 81.6421 69.4541 80.5455C68.9396 80.031 68.5035 79.4494 68.1528 78.8207C68.1122 78.7323 68.0672 78.6461 68.0152 78.5635C67.6894 77.9247 67.4501 77.2414 67.3087 76.5305C67.0634 75.2976 67.1182 74.0279 67.4641 72.8282C67.4848 72.77 67.5027 72.7111 67.5186 72.6513C67.5876 72.4316 67.6658 72.2141 67.7544 72.0001C68.3479 70.5673 69.3535 69.3425 70.643 68.4809C71.9325 67.6193 73.4483 67.1589 74.9991 67.1589ZM109.092 47.3162C110.428 45.1303 113.523 44.7738 114.997 46.8696C119.929 53.8831 122.946 62.0952 123.707 70.6827C123.85 72.3004 122.814 73.7747 121.255 74.2296C110.298 77.4253 99.2443 78.117 88.3051 76.2876C87.6911 76.1847 87.2725 75.623 87.2725 75.0004C87.2725 73.6695 87.0553 72.3548 86.6375 71.106C86.6234 71.0635 86.6393 71.0176 86.6759 70.9917C95.763 64.772 103.276 56.8292 109.092 47.3162ZM74.9991 73.5615C74.7514 73.5615 74.5073 73.6256 74.2908 73.7482L74.1997 73.8044C73.992 73.9433 73.825 74.1331 73.7138 74.3538L73.6691 74.4502C73.6595 74.4736 73.6481 74.5062 73.6343 74.5485C73.6257 74.5775 73.6167 74.607 73.6075 74.6369C73.5534 74.8443 73.5447 75.0649 73.5879 75.2818C73.6079 75.3825 73.6408 75.4832 73.6852 75.5828C73.7206 75.6473 73.7542 75.7105 73.7861 75.7722C73.8451 75.8656 73.9107 75.9476 73.9809 76.0178H73.9818C74.1834 76.2195 74.4402 76.3572 74.7186 76.4126H74.7178C74.9613 76.4611 75.2141 76.445 75.4502 76.3671L75.5502 76.3304C75.6226 76.2899 75.6935 76.2515 75.7628 76.2152C75.9394 76.1047 76.0869 75.964 76.196 75.8008C76.3531 75.5656 76.438 75.2869 76.438 75.0004C76.438 74.8176 76.3994 74.634 76.3264 74.4574C76.2765 74.3687 76.2285 74.28 76.1826 74.1912C76.1293 74.1122 76.0751 74.0417 76.0165 73.9831V73.984C75.8519 73.8194 75.6494 73.6972 75.4252 73.6276V73.6249C75.4185 73.6229 75.4119 73.6215 75.4055 73.6195V73.6213C75.2673 73.5806 75.1307 73.5615 74.9991 73.5615ZM112.151 54.3708C107.945 60.5283 103.022 66.0275 97.4175 70.8175C103.933 71.1001 110.483 70.4112 117.03 68.7444C116.277 63.6853 114.62 58.8176 112.151 54.3708ZM37.5205 43.5861C38.5627 42.3432 40.3349 42.034 41.7579 42.8126C51.7531 48.2816 60.0598 55.5939 66.5093 64.6097C66.8873 65.1382 66.7803 65.8625 66.3208 66.322C66.0297 66.6131 65.7543 66.9179 65.4955 67.2349C64.4588 68.5041 62.8867 69.3423 61.2662 69.0981C51.3073 67.5967 41.2734 68.0602 31.3155 70.4745C28.824 71.0786 26.3805 69.1417 26.82 66.6159C28.2924 58.1558 31.9737 50.2035 37.5205 43.5861ZM79.5223 31.3152C78.9198 28.824 80.8567 26.3819 83.3818 26.8214C91.8401 28.2938 99.7903 31.974 106.407 37.5194C107.651 38.5623 107.96 40.336 107.179 41.7595C101.98 51.2408 95.1255 59.2006 86.7286 65.4922C85.4453 66.4537 83.6643 66.1625 82.3832 65.1983C81.778 64.7428 81.1298 64.3425 80.4467 64.0041C80.4326 63.9971 80.4254 63.9821 80.428 63.9666C82.4574 53.1225 82.1493 42.174 79.5223 31.3152ZM70.6921 26.2873C72.3083 26.1446 73.7814 27.1793 74.2372 28.7365C77.2253 38.9451 78.0337 49.2509 76.6515 59.471C76.3973 61.3498 74.6552 62.5859 72.7902 62.9269C72.7282 62.9382 72.6663 62.9503 72.6044 62.9626C72.0864 63.0657 71.5775 63.2034 71.0807 63.3708C71.0678 63.3749 71.0536 63.3702 71.0458 63.3592C64.8121 54.253 56.8514 46.7273 47.3136 40.9065C45.1257 39.5711 44.7676 36.4743 46.8643 34.9997C53.8815 30.0642 62.0993 27.0466 70.6921 26.2873ZM40.8682 49.6752C37.8134 53.7921 35.5376 58.4171 34.1362 63.3181C41.4772 61.9269 48.8622 61.5115 56.2295 62.0837C51.8121 57.2699 46.6837 53.1229 40.8682 49.6752ZM132.761 36.7048C130.702 37.8441 128.371 38.46 125.975 38.4627H125.968C124.525 38.4626 123.099 38.2379 121.738 37.8079C126.891 44.2835 130.649 51.7688 132.761 59.7935V36.7048ZM17.2351 59.7622C17.919 57.1697 18.7774 54.618 19.8102 52.1261C21.925 47.0241 24.7297 42.2608 28.1286 37.9607C26.932 38.2892 25.687 38.4612 24.4245 38.4627H24.4173C21.8846 38.4627 19.4043 37.7753 17.2351 36.4842V59.7622ZM86.6768 34.1377C88.0634 41.4737 88.4748 48.8512 87.9022 56.209C92.7146 51.7996 96.8635 46.6784 100.316 40.8672C96.1999 37.8137 91.5765 35.5386 86.6768 34.1377ZM68.7566 32.9623C63.6925 33.714 58.8196 35.3721 54.3689 37.8428C60.537 42.0493 66.0449 46.9753 70.8431 52.5835C71.1223 46.0636 70.4295 39.5092 68.7566 32.9623ZM27.3417 17.3569C25.9453 16.7785 24.4081 16.6279 22.9257 16.9228C21.4435 17.2177 20.0821 17.9453 19.0135 19.0138C17.9447 20.0826 17.2165 21.4446 16.9216 22.927C16.6268 24.4093 16.7783 25.9458 17.3566 27.3422C17.935 28.7386 18.9144 29.9324 20.1711 30.7721C21.4278 31.6118 22.9059 32.0601 24.4173 32.0601C26.4433 32.0577 28.3859 31.2516 29.8185 29.819C31.251 28.3864 32.0564 26.4438 32.0586 24.4178C32.0586 22.9064 31.6103 21.429 30.7707 20.1723C29.931 18.9156 28.738 17.9353 27.3417 17.3569ZM128.893 17.3569C127.496 16.7785 125.959 16.6279 124.477 16.9228C122.995 17.2177 121.633 17.9453 120.565 19.0138C119.496 20.0826 118.768 21.4446 118.473 22.927C118.178 24.4093 118.329 25.9458 118.908 27.3422C119.486 28.7386 120.466 29.9324 121.722 30.7721C122.979 31.6117 124.456 32.06 125.968 32.0601C127.994 32.0579 129.936 31.2516 131.369 29.819C132.801 28.3864 133.608 26.4439 133.61 24.4178C133.61 22.9064 133.161 21.429 132.322 20.1723C131.482 18.9157 130.289 17.9353 128.893 17.3569ZM90.2272 17.2372C90.942 17.4257 91.6541 17.6275 92.3629 17.8428C99.7349 20.0829 106.584 23.7226 112.545 28.5408C111.864 26.3241 111.739 23.9665 112.194 21.6783C112.507 20.1031 113.087 18.6026 113.9 17.2372H90.2272ZM36.4835 17.2381C37.7735 19.4062 38.4611 21.8849 38.4611 24.4178V24.4249C38.4597 25.6874 38.2876 26.9322 37.9591 28.1291C44.4078 23.0334 51.8315 19.3294 59.7603 17.2381H36.4835ZM24.4173 21.2076C25.268 21.209 26.0836 21.5475 26.6852 22.149C27.2868 22.7507 27.6252 23.5669 27.6266 24.4178C27.6266 25.0524 27.4387 25.6729 27.0862 26.2006C26.7335 26.7284 26.2319 27.1403 25.6455 27.3832C25.059 27.6262 24.413 27.6902 23.7903 27.5664C23.1678 27.4425 22.5957 27.1363 22.1468 26.6874C21.698 26.2385 21.3927 25.6665 21.2688 25.0439C21.145 24.4214 21.2082 23.776 21.451 23.1896C21.694 22.6031 22.1058 22.1016 22.6336 21.7489C23.1615 21.3961 23.7825 21.2076 24.4173 21.2076ZM125.968 21.2076C126.818 21.2089 127.635 21.5474 128.236 22.149C128.838 22.7507 129.176 23.5669 129.178 24.4178C129.178 25.0526 128.989 25.6728 128.637 26.2006C128.284 26.7284 127.783 27.1403 127.197 27.3832C126.61 27.6262 125.964 27.6902 125.342 27.5664C124.719 27.4425 124.147 27.1363 123.698 26.6874C123.249 26.2385 122.944 25.6665 122.82 25.0439C122.696 24.4214 122.759 23.776 123.002 23.1896C123.245 22.6031 123.657 22.1016 124.185 21.7489C124.713 21.3962 125.333 21.2076 125.968 21.2076ZM24.4173 24.4222V25.6567C24.7449 25.6543 25.0588 25.5234 25.2909 25.2913C25.3486 25.2336 25.3997 25.1707 25.4445 25.1038L24.4236 24.4222H24.4173ZM24.1753 25.6299C24.2522 25.6452 24.3301 25.6561 24.4093 25.6567L24.4111 24.4419L24.1753 25.6299ZM125.726 25.6308C125.803 25.6461 125.881 25.6562 125.96 25.6567L125.962 24.4446L125.726 25.6308ZM125.968 24.4222V25.6567C126.132 25.6555 126.292 25.6218 126.441 25.5593L125.969 24.4222H125.968ZM23.542 25.2922C23.5992 25.3495 23.66 25.4032 23.7278 25.4485C23.8632 25.539 24.0158 25.5981 24.1744 25.6299L24.4111 24.4401V24.4222L23.542 25.2922ZM125.093 25.2922C125.15 25.3495 125.211 25.4033 125.279 25.4485C125.415 25.5392 125.567 25.5982 125.726 25.6299L125.962 24.4419V24.4231L125.093 25.2922ZM125.97 24.4222L126.441 25.5593C126.589 25.4972 126.725 25.4072 126.841 25.2913C126.957 25.1753 127.047 25.0386 127.109 24.8903L125.978 24.4222H125.97ZM23.1794 24.424C23.1802 24.5837 23.2096 24.7429 23.2714 24.8921C23.334 25.0432 23.428 25.1771 23.542 25.2913L24.4111 24.4222L23.1794 24.424ZM124.731 24.424C124.731 24.5838 124.761 24.7429 124.823 24.8921C124.885 25.0432 124.979 25.1771 125.093 25.2913L125.962 24.4222L124.731 24.424ZM24.4245 24.4222L25.4445 25.1038C25.4895 25.0366 25.5278 24.9655 25.5588 24.8912L24.4272 24.4222H24.4245ZM24.4289 24.4222L25.5588 24.8903C25.6204 24.7428 25.6538 24.5837 25.6553 24.4205L24.4289 24.4222ZM125.98 24.4222L127.11 24.8903C127.172 24.7425 127.205 24.5833 127.206 24.4205L125.98 24.4222ZM125.968 24.4169L125.969 24.4178H127.207C127.207 24.2345 127.167 24.054 127.089 23.889L126.998 23.7291C126.953 23.661 126.899 23.6003 126.842 23.5433L125.968 24.4169ZM124.825 23.9444C124.794 24.0191 124.768 24.0959 124.752 24.1757C124.736 24.2557 124.731 24.3369 124.731 24.4178H125.962V24.4151L124.825 23.9444ZM24.4164 24.4169L24.4182 24.4178H25.6562C25.6562 24.2344 25.6153 24.054 25.5374 23.889L25.4472 23.7291C25.4017 23.661 25.3477 23.6003 25.2909 23.5433L24.4164 24.4169ZM23.274 23.9444C23.2431 24.0191 23.2167 24.0959 23.2008 24.1757C23.1849 24.2557 23.1802 24.3369 23.1803 24.4178H24.412L24.4111 24.416L23.274 23.9444ZM24.4173 24.416L25.29 23.5433C25.1749 23.428 25.0413 23.3338 24.8916 23.2718C24.8163 23.2406 24.7374 23.2205 24.6576 23.2048L24.4173 24.4151V24.416ZM125.968 24.4169L126.841 23.5433C126.726 23.428 126.592 23.3338 126.443 23.2718C126.368 23.2406 126.289 23.2205 126.209 23.2048L125.968 24.4169ZM23.3884 23.7309C23.3433 23.7984 23.3051 23.8696 23.274 23.9444L24.4111 24.4151V24.4142L23.3884 23.7309ZM125.494 23.2754C125.345 23.3373 125.207 23.4253 125.091 23.5406C124.976 23.6565 124.887 23.7949 124.825 23.9444L125.962 24.4151V24.4053L125.494 23.2754ZM125.968 24.4151L126.209 23.2039C126.129 23.1883 126.049 23.1805 125.968 23.1807V24.4151ZM24.1753 23.2021C23.9344 23.25 23.7132 23.3678 23.5402 23.5406C23.4825 23.5983 23.4333 23.6629 23.3884 23.73L24.4111 24.4133L24.4138 23.1807C24.3343 23.181 24.2544 23.1864 24.1753 23.2021ZM24.4173 24.4124L24.6576 23.2039C24.5786 23.1884 24.4984 23.1806 24.4173 23.1807V24.4124ZM125.964 23.1807C125.885 23.181 125.805 23.1865 125.726 23.2021C125.646 23.2181 125.569 23.2436 125.494 23.2745L125.962 24.4035L125.964 23.1807ZM150 133.379C149.995 137.785 148.242 142.011 145.125 145.128C142.008 148.244 137.78 149.996 133.373 150H16.6242C12.2157 149.996 7.9893 148.242 4.87329 145.126V145.125C1.75714 142.008 0.00452775 137.783 0 133.376V16.6254L0.00535918 16.2127C0.114413 11.9549 1.85276 7.89333 4.87239 4.87337C7.98939 1.75632 12.217 0.00367687 16.6251 0H133.375L133.788 0.00535928C138.047 0.114481 142.108 1.85424 145.127 4.87337C148.243 7.99001 149.996 12.2166 150 16.6254V133.379Z" fill="#3D9037"/>
</svg>
